<svg xmlns="http://www.w3.org/2000/svg" class="fig" viewBox="0 0 380 190" role="img" aria-label="Three files, each holding one or more POUs"><style>/* When this file is its own document, an image in the README: the site inlines it and colors it itself. */svg:root{color:#111}svg:root text{font-family:ui-monospace,SFMono-Regular,Menlo,Consolas,monospace;font-size:11px;fill:#6f6f6a}svg:root .t{fill:#111}svg:root .p{fill:#fbfbf9}svg:root .rt{fill:#e51400}svg:root .g{fill:#1c6b3a;font-weight:600}svg:root .code{font-size:13px}svg:root .l{fill:none;stroke:currentColor;stroke-width:1.2}svg:root .m{fill:none;stroke:#6f6f6a;stroke-width:1}svg:root .f{fill:#f3f2ed}svg:root .k{fill:#111;stroke:#111}svg:root .dash{stroke-dasharray:4 3}svg:root .r{fill:none;stroke:#e51400;stroke-width:1.4}svg:root .head{fill:currentColor;stroke:none}@media (prefers-color-scheme:dark){svg:root{color:#e8e6df}svg:root text{font-family:ui-monospace,SFMono-Regular,Menlo,Consolas,monospace;font-size:11px;fill:#979489}svg:root .t{fill:#e8e6df}svg:root .p{fill:#131312}svg:root .rt{fill:#f14c4c}svg:root .g{fill:#a6d189;font-weight:600}svg:root .code{font-size:13px}svg:root .l{fill:none;stroke:currentColor;stroke-width:1.2}svg:root .m{fill:none;stroke:#979489;stroke-width:1}svg:root .f{fill:#1c1b19}svg:root .k{fill:#e8e6df;stroke:#e8e6df}svg:root .dash{stroke-dasharray:4 3}svg:root .r{fill:none;stroke:#f14c4c;stroke-width:1.4}svg:root .head{fill:currentColor;stroke:none}}</style><path class="l f" d="M30 20h52l10 10v26h-62z"/><path class="l" d="M82 20v10h10"/><text class="t" x="61" y="44" text-anchor="middle">plant.st</text><path class="l f" d="M30 77h52l10 10v26h-62z"/><path class="l" d="M82 77v10h10"/><text class="t" x="61" y="101" text-anchor="middle">axis.st</text><path class="l f" d="M30 134h52l10 10v26h-62z"/><path class="l" d="M82 134v10h10"/><text class="t" x="61" y="158" text-anchor="middle">ramp.st</text><path class="m" d="M92 38C170 38 170 21 248 21"/><path class="m" d="M92 38C170 38 170 55 248 55"/><path class="m" d="M92 95C170 95 170 89 248 89"/><path class="m" d="M92 95C170 95 170 123 248 123"/><path class="m" d="M92 152C170 152 170 165 248 165"/><rect class="l f" x="248" y="8" width="108" height="26" rx="3"/><text class="t" x="302" y="25" text-anchor="middle">CONFIGURATION</text><rect class="l f" x="248" y="42" width="108" height="26" rx="3"/><text class="t" x="302" y="59" text-anchor="middle">PROGRAM</text><rect class="l f" x="248" y="76" width="108" height="26" rx="3"/><text class="t" x="302" y="93" text-anchor="middle">FUNCTION_BLOCK</text><rect class="l f" x="248" y="110" width="108" height="26" rx="3"/><text class="t" x="302" y="127" text-anchor="middle">FUNCTION</text><rect class="l f" x="248" y="152" width="108" height="26" rx="3"/><text class="t" x="302" y="169" text-anchor="middle">FUNCTION_BLOCK</text></svg>
