<svg xmlns="http://www.w3.org/2000/svg" class="fig" viewBox="0 0 380 190" role="img" aria-label="An array subscript checked against its bounds: in bounds it stores, out of bounds it throws array index out of bounds"><style>/* When this file is its own document, an image in the README: the site inlines it and colors it itself. */svg:root{color:#111}svg:root text{font-family:ui-monospace,SFMono-Regular,Menlo,Consolas,monospace;font-size:11px;fill:#6f6f6a}svg:root .t{fill:#111}svg:root .p{fill:#fbfbf9}svg:root .rt{fill:#e51400}svg:root .g{fill:#1c6b3a;font-weight:600}svg:root .code{font-size:13px}svg:root .l{fill:none;stroke:currentColor;stroke-width:1.2}svg:root .m{fill:none;stroke:#6f6f6a;stroke-width:1}svg:root .f{fill:#f3f2ed}svg:root .k{fill:#111;stroke:#111}svg:root .dash{stroke-dasharray:4 3}svg:root .r{fill:none;stroke:#e51400;stroke-width:1.4}svg:root .head{fill:currentColor;stroke:none}@media (prefers-color-scheme:dark){svg:root{color:#e8e6df}svg:root text{font-family:ui-monospace,SFMono-Regular,Menlo,Consolas,monospace;font-size:11px;fill:#979489}svg:root .t{fill:#e8e6df}svg:root .p{fill:#131312}svg:root .rt{fill:#f14c4c}svg:root .g{fill:#a6d189;font-weight:600}svg:root .code{font-size:13px}svg:root .l{fill:none;stroke:currentColor;stroke-width:1.2}svg:root .m{fill:none;stroke:#979489;stroke-width:1}svg:root .f{fill:#1c1b19}svg:root .k{fill:#e8e6df;stroke:#e8e6df}svg:root .dash{stroke-dasharray:4 3}svg:root .r{fill:none;stroke:#f14c4c;stroke-width:1.4}svg:root .head{fill:currentColor;stroke:none}}</style><rect class="l f" x="8" y="22" width="100" height="30" rx="3"/><text class="t" x="58" y="41" text-anchor="middle">a[i] := 0</text><path class="l" d="M108 37L136 37"/><path class="head" d="M136 37L130.6 39.6L130.6 34.4z"/><path class="l" d="M200 8L264 37L200 66L136 37z"/><text class="t" x="200" y="41" text-anchor="middle">1 ≤ i ≤ 3</text><path class="l" d="M264 37L300 37"/><path class="head" d="M300 37L294.6 39.6L294.6 34.4z"/><text x="270" y="28">yes</text><rect class="l" x="300" y="23" width="72" height="28" rx="3"/><text class="t" x="336" y="41" text-anchor="middle">store</text><path class="l" d="M200 66L200 104"/><path class="head" d="M200 104L197.4 98.6L202.6 98.6z"/><text x="208" y="90">no</text><rect class="k" x="70" y="104" width="260" height="34" rx="3"/><text class="p" x="200" y="125" text-anchor="middle">array index out of bounds</text><text x="200" y="166" text-anchor="middle">one exception, with its message</text></svg>
